<svg xmlns="http://www.w3.org/2000/svg" fill="none" viewBox="0 0 108 108"><g clip-path="url(#a)"><path fill="#06090E" d="M0 0h108v108H0z"/><g filter="url(#b)"><path fill="url(#c)" fill-rule="evenodd" d="M108 0H0v108h108V0ZM54 85a31 31 0 1 0 0-62 31 31 0 0 0 0 62Z" clip-rule="evenodd"/></g><g filter="url(#d)"><g filter="url(#e)"><path fill="url(#f)" d="M71.81 51.81H70.1a4.48 4.48 0 0 1-3.12-7.65l1.17-1.18a2.21 2.21 0 0 0-3.12-3.12l-1.18 1.17a4.45 4.45 0 0 1-7.65-3.12v-1.72a2.19 2.19 0 0 0-4.38 0v1.72a4.48 4.48 0 0 1-7.65 3.12l-1.18-1.17a2.21 2.21 0 0 0-3.12 3.12l1.17 1.18a4.48 4.48 0 0 1-3.12 7.65H36.2a2.19 2.19 0 0 0 0 4.38h1.72a4.48 4.48 0 0 1 3.12 7.65l-1.17 1.18a2.21 2.21 0 0 0 3.12 3.12l1.18-1.17a4.48 4.48 0 0 1 7.65 3.12v1.72a2.19 2.19 0 0 0 4.38 0V70.1a4.48 4.48 0 0 1 7.65-3.12l1.18 1.17a2.21 2.21 0 0 0 3.12-3.12l-1.17-1.18a4.45 4.45 0 0 1 3.12-7.65h1.72a2.19 2.19 0 0 0 0-4.38ZM51.5 55.25a3.75 3.75 0 1 1 0-7.5 3.75 3.75 0 0 1 0 7.5Zm6.25 4.38a1.88 1.88 0 1 1 0-3.76 1.88 1.88 0 0 1 0 3.76Z"/></g><g filter="url(#g)"><circle cx="54" cy="54" r="12" fill="#B8D4F4"/></g></g></g><defs><filter id="b" width="113" height="113" x="0" y="0" color-interpolation-filters="sRGB" filterUnits="userSpaceOnUse"><feFlood flood-opacity="0" result="BackgroundImageFix"/><feColorMatrix in="SourceAlpha" result="hardAlpha" values="0 0 0 0 0 0 0 0 0 0 0 0 0 0 0 0 0 0 127 0"/><feOffset dx="4" dy="4"/><feGaussianBlur stdDeviation=".5"/><feColorMatrix values="0 0 0 0 0 0 0 0 0 0 0 0 0 0 0 0 0 0 0.25 0"/><feBlend in2="BackgroundImageFix" result="effect1_dropShadow_5_24"/><feBlend in="SourceGraphic" in2="effect1_dropShadow_5_24" result="shape"/></filter><filter id="d" width="111" height="111" x="0" y="0" color-interpolation-filters="sRGB" filterUnits="userSpaceOnUse"><feFlood flood-opacity="0" result="BackgroundImageFix"/><feColorMatrix in="SourceAlpha" result="hardAlpha" values="0 0 0 0 0 0 0 0 0 0 0 0 0 0 0 0 0 0 127 0"/><feOffset dx="2" dy="2"/><feGaussianBlur stdDeviation=".5"/><feColorMatrix values="0 0 0 0 0 0 0 0 0 0 0 0 0 0 0 0 0 0 0.25 0"/><feBlend in2="BackgroundImageFix" result="effect1_dropShadow_5_24"/><feBlend in="SourceGraphic" in2="effect1_dropShadow_5_24" result="shape"/></filter><filter id="e" width="43" height="43" x="34" y="34" color-interpolation-filters="sRGB" filterUnits="userSpaceOnUse"><feFlood flood-opacity="0" result="BackgroundImageFix"/><feColorMatrix in="SourceAlpha" result="hardAlpha" values="0 0 0 0 0 0 0 0 0 0 0 0 0 0 0 0 0 0 127 0"/><feOffset dx="2" dy="2"/><feGaussianBlur stdDeviation=".5"/><feComposite in2="hardAlpha" operator="out"/><feColorMatrix values="0 0 0 0 0 0 0 0 0 0 0 0 0 0 0 0 0 0 1 0"/><feBlend in2="BackgroundImageFix" result="effect1_dropShadow_5_24"/><feBlend in="SourceGraphic" in2="effect1_dropShadow_5_24" result="shape"/></filter><filter id="g" width="32" height="32" x="39" y="39" color-interpolation-filters="sRGB" filterUnits="userSpaceOnUse"><feFlood flood-opacity="0" result="BackgroundImageFix"/><feColorMatrix in="SourceAlpha" result="hardAlpha" values="0 0 0 0 0 0 0 0 0 0 0 0 0 0 0 0 0 0 127 0"/><feOffset dx="1" dy="1"/><feGaussianBlur stdDeviation="2"/><feComposite in2="hardAlpha" operator="out"/><feColorMatrix values="0 0 0 0 0 0 0 0 0 0 0 0 0 0 0 0 0 0 0.25 0"/><feBlend in2="BackgroundImageFix" result="effect1_dropShadow_5_24"/><feBlend in="SourceGraphic" in2="effect1_dropShadow_5_24" result="shape"/></filter><linearGradient id="c" x1="0" x2="108" y1="0" y2="108" gradientUnits="userSpaceOnUse"><stop stop-color="#1A559E"/><stop offset="1" stop-color="#568EDC"/></linearGradient><linearGradient id="f" x1="40.5" x2="68" y1="41" y2="68" gradientUnits="userSpaceOnUse"><stop stop-color="#568EDC"/><stop offset="1" stop-color="#1A559E"/></linearGradient><clipPath id="a"><path fill="#fff" d="M0 0h108v108H0z"/></clipPath></defs></svg>